<?xml version="1.0" encoding="UTF-8" standalone="no"?>
<!DOCTYPE svg PUBLIC "-//W3C//DTD SVG 1.1//EN" "http://www.w3.org/Graphics/SVG/1.1/DTD/svg11.dtd">
<svg width="100%" height="100%" viewBox="0 0 20 52" version="1.1" xmlns="http://www.w3.org/2000/svg" xmlns:xlink="http://www.w3.org/1999/xlink" xml:space="preserve" xmlns:serif="http://www.serif.com/" style="fill-rule:evenodd;clip-rule:evenodd;stroke-miterlimit:10;">
    <g transform="matrix(1,0,0,1,-2625,-352)">
        <g id="Prancheta8" transform="matrix(0.382095,0,0,0.500249,1621.66,175.533)">
            <rect x="2625.88" y="352.758" width="51.818" height="103.131" style="fill:none;"/>
            <clipPath id="_clip1">
                <rect x="2625.88" y="352.758" width="51.818" height="103.131"/>
            </clipPath>
            <g clip-path="url(#_clip1)">
                <g transform="matrix(2.61715,0,0,1.999,2675.42,359.484)">
                    <path d="M0,47.316L0.326,15.642C0.318,11.741 -5.705,7.962 -5.719,2.587C-5.721,1.247 -5.727,-0.385 -5.727,-0.385L-7.416,-0.382L-10.764,-0.373L-12.453,-0.369C-12.453,-0.369 -12.449,1.264 -12.445,2.603C-12.434,7.98 -18.437,11.788 -18.428,15.69L-17.807,47.701" style="fill:white;fill-rule:nonzero;"/>
                </g>
                <g transform="matrix(2.61715,0,0,1.999,2675.42,359.484)">
                    <path d="M-5.224,0.597C-5.22,1.88 -5.266,3.096 -5.053,4.07C-4.082,8.509 0.771,11.426 0.826,15.641L0.5,47.321L-0.5,47.311L-0.174,15.643C-0.21,12.943 -2.488,10.879 -3.809,8.947C-5.081,7.06 -6.152,4.98 -6.218,2.723C-6.232,1.552 -6.225,0.116 -6.225,0.116C-7.738,0.119 -9.25,0.123 -10.763,0.127L-11.952,0.13C-11.948,1.454 -11.846,2.787 -12.076,4.045C-12.893,8.513 -17.703,11.577 -17.924,15.529L-17.928,15.688L-17.307,47.691L-18.307,47.711L-18.928,15.692C-18.884,11.186 -12.97,7.891 -12.945,2.602L-12.954,-0.868C-10.379,-0.874 -7.804,-0.881 -5.229,-0.886C-5.227,-0.392 -5.225,0.103 -5.224,0.597Z" style="fill:rgb(35,31,32);fill-rule:nonzero;"/>
                </g>
                <g transform="matrix(2.61715,0,0,1.999,2663.58,356.136)">
                    <path d="M0,-0.021C0.002,0.692 -0.348,1.27 -0.783,1.271L-8.262,1.29C-8.699,1.29 -9.053,0.714 -9.055,0.001C-9.057,-0.711 -8.703,-1.29 -8.266,-1.291L-0.791,-1.31C-0.355,-1.311 0,-0.734 0,-0.021Z" style="fill:white;fill-rule:nonzero;stroke:rgb(35,31,32);stroke-width:1px;"/>
                </g>
                <g transform="matrix(2.78435,0,0,1.999,-4729.14,-399.952)">
                    <rect x="2642.14" y="427.109" width="17.669" height="1" style="fill:rgb(35,31,32);fill-rule:nonzero;"/>
                </g>
            </g>
        </g>
    </g>
</svg>
