<?xml version="1.0" encoding="UTF-8" standalone="no"?>
<!DOCTYPE svg PUBLIC "-//W3C//DTD SVG 1.1//EN" "http://www.w3.org/Graphics/SVG/1.1/DTD/svg11.dtd">
<svg width="100%" height="100%" viewBox="0 0 33 36" version="1.1" xmlns="http://www.w3.org/2000/svg" xmlns:xlink="http://www.w3.org/1999/xlink" xml:space="preserve" xmlns:serif="http://www.serif.com/" style="fill-rule:evenodd;clip-rule:evenodd;stroke-miterlimit:10;">
    <g transform="matrix(1,0,0,1,-2694,-367.89)">
        <g id="Prancheta10" transform="matrix(0.514736,0,0,0.628093,1306.91,149.942)">
            <rect x="2694.77" y="347" width="63.942" height="56.171" style="fill:none;"/>
            <clipPath id="_clip1">
                <rect x="2694.77" y="347" width="63.942" height="56.171"/>
            </clipPath>
            <g clip-path="url(#_clip1)">
                <g transform="matrix(1.94274,0,0,1.59212,2732.86,396.762)">
                    <path d="M0,-27.212L-5.022,-27.212C-5.531,-27.212 -5.943,-27.518 -5.943,-27.895C-5.943,-28.274 -5.531,-28.579 -5.022,-28.579L-3.774,-28.579C-3.779,-28.612 -3.787,-28.643 -3.787,-28.676C-3.787,-29.2 -3.216,-29.625 -2.512,-29.625C-1.807,-29.625 -1.236,-29.2 -1.236,-28.676C-1.236,-28.643 -1.244,-28.612 -1.249,-28.579L0,-28.579C0.508,-28.579 0.92,-28.274 0.92,-27.895C0.92,-27.518 0.508,-27.212 0,-27.212ZM11.238,-30.729L-17.523,-30.729C-18.385,-30.729 -19.084,-30.027 -19.084,-29.166L-19.084,1.956C-19.084,2.818 -18.385,3.517 -17.523,3.517L11.238,3.517C12.1,3.517 12.801,2.818 12.801,1.956L12.801,-29.166C12.801,-30.027 12.1,-30.729 11.238,-30.729Z" style="fill:rgb(255,253,255);fill-rule:nonzero;stroke:rgb(35,31,32);stroke-width:0.96px;"/>
                </g>
            </g>
        </g>
    </g>
</svg>
