<?xml version="1.0" encoding="UTF-8" standalone="no"?>
<!DOCTYPE svg PUBLIC "-//W3C//DTD SVG 1.1//EN" "http://www.w3.org/Graphics/SVG/1.1/DTD/svg11.dtd">
<svg width="100%" height="100%" viewBox="0 0 24 25" version="1.1" xmlns="http://www.w3.org/2000/svg" xmlns:xlink="http://www.w3.org/1999/xlink" xml:space="preserve" xmlns:serif="http://www.serif.com/" style="fill-rule:evenodd;clip-rule:evenodd;stroke-linejoin:round;stroke-miterlimit:1.41421;">
    <g transform="matrix(1,0,0,1,-2658,-378.647)">
        <g id="Prancheta9" transform="matrix(0.423445,0,0,0.488382,1532.35,206.737)">
            <rect x="2658.31" y="352" width="55.996" height="51.075" style="fill:none;"/>
            <clipPath id="_clip1">
                <rect x="2658.31" y="352" width="55.996" height="51.075"/>
            </clipPath>
            <g clip-path="url(#_clip1)">
                <g transform="matrix(2.36158,0,0,2.04758,2711.6,384.478)">
                    <path d="M0,-6.592C-0.497,-8.312 -1.377,-9.89 -2.727,-11.084C-3.519,-11.785 -4.428,-12.338 -5.372,-12.808C-6.437,-13.339 -7.566,-13.758 -8.736,-13.993C-9.155,-14.077 -9.58,-14.137 -10.009,-14.171C-10.077,-14.626 -10.342,-15.029 -10.833,-15.192C-11.292,-15.343 -11.686,-15.166 -11.979,-14.856C-12.295,-15.068 -12.709,-15.09 -13.072,-15.02C-13.775,-14.885 -14.153,-14.23 -14.101,-13.582C-17.049,-12.702 -19.601,-10.515 -21.004,-7.788C-21.875,-6.096 -22.305,-4.159 -22.079,-2.261C-21.853,-0.365 -21.126,1.466 -20.065,3.049C-17.944,6.218 -14.444,8.433 -10.602,8.646C-8.719,8.751 -6.811,8.334 -5.131,7.482C-3.549,6.675 -2.207,5.438 -1.211,3.973C-0.195,2.484 0.397,0.748 0.605,-1.036C0.823,-2.888 0.518,-4.812 0,-6.592" style="fill:rgb(253,253,255);fill-rule:nonzero;"/>
                </g>
                <g transform="matrix(2.36158,0,0,2.04758,2711.6,384.478)">
                    <path d="M-11.105,-15.746C-10.285,-15.696 -9.614,-14.635 -9.614,-14.635C-9.292,-14.598 -9.293,-14.597 -8.967,-14.544C-4.696,-13.784 -0.788,-11.023 0.479,-6.734L0,-6.592L0.48,-6.73C1.645,-2.683 1.229,1.948 -1.531,5.222C-4.647,8.919 -10.291,10.107 -14.764,8.147C-20.46,5.652 -24.174,-1.372 -21.877,-7.082C-20.607,-10.239 -17.915,-12.782 -14.676,-13.923C-14.676,-13.923 -13.644,-15.974 -12.068,-15.453C-12.068,-15.453 -11.571,-15.754 -11.105,-15.746ZM-11.182,-14.746C-11.765,-14.709 -11.596,-14.269 -12.436,-14.521C-13.004,-14.673 -13.64,-14.255 -13.602,-13.611C-13.602,-13.611 -13.425,-13.288 -14.35,-12.977C-19.022,-11.333 -22.444,-6.418 -21.447,-1.477C-20.32,4.103 -14.756,8.862 -8.726,8.077C-4.181,7.485 -0.383,3.449 0.118,-1.177C0.495,-4.662 -0.553,-8.443 -3,-10.657C-4.926,-12.4 -7.498,-13.45 -10.052,-13.673C-10.052,-13.673 -10.366,-13.644 -10.534,-14.236C-10.626,-14.525 -10.885,-14.753 -11.182,-14.746Z" style="fill:rgb(35,31,32);fill-rule:nonzero;"/>
                </g>
            </g>
        </g>
    </g>
</svg>
